# xmcd
#
# Track frame offsets: 
#        150
#        17577
#        43474
#
# Disc length: 1179 seconds
#
# Revision: 0
# Processed by: cddbd v1.5.1PL2 Copyright (c) Steve Scherf et al.
# Submitted via: ExactAudioCopy v0.95b3
#
DISCID=20049903
DTITLE=Blondie Vs. The Doors - Rapture Riders
DYEAR=2006
DGENRE=Blues
TTITLE0=Rapture Riders (Single Edit)
TTITLE1=Rapture Riders (Full Version)
TTITLE2=Rapture (Special Disco Mix)
EXTD=
EXTT0=
EXTT1=
EXTT2=
PLAYORDER=
